HIERARCHY
ROOT pelvis
{
  OFFSET 0 100 0
  CHANNELS 6 Xposition Yposition Zposition Zrotation Xrotation Yrotation
  JOINT pelvis_right_femur
  {
    OFFSET -10.78128 -3.44521 -0.5502486
    CHANNELS 3 Zrotation Xrotation Yrotation
    JOINT right_femur_tibia
    {
      OFFSET -0.8047443 -44.0398 -0.1307829
      CHANNELS 3 Zrotation Xrotation Yrotation
      JOINT right_tibia_foot
      {
        OFFSET 3.006224 -47.83518 -5
        CHANNELS 3 Zrotation Xrotation Yrotation
        End Site
        {
          OFFSET 0 -5 15
        }
      }
    }
  }
  JOINT pelvis_left_femur
  {
    OFFSET 10.78128 -3.44521 -0.5502486
    CHANNELS 3 Zrotation Xrotation Yrotation
    JOINT left_femur_tibia
    {
      OFFSET 0.8047443 -44.0398 -0.1307829
      CHANNELS 3 Zrotation Xrotation Yrotation
      JOINT left_tibia_foot
      {
        OFFSET -4.370144 -48.10324 -4.275266
        CHANNELS 3 Zrotation Xrotation Yrotation
        End Site
        {
          OFFSET 0 -5 15
        }
      }
    }
  }
  JOINT pelvis_spine1
  {
    OFFSET 0 6.468898 -3.129235
    CHANNELS 3 Zrotation Xrotation Yrotation
    JOINT spine1
    {
      OFFSET 0 23.15396 4.99043
      CHANNELS 3 Zrotation Xrotation Yrotation
      JOINT spine2
      {
        OFFSET 0 20.79997 -5.064912
        CHANNELS 3 Zrotation Xrotation Yrotation
        JOINT neck
        {
          OFFSET 0 14.38658 9.616178
          CHANNELS 3 Zrotation Xrotation Yrotation
          End Site
          {
            OFFSET 0 20 0
          }
        }
      }
      JOINT right_manubrium
      {
        OFFSET -5.722621 16.35077 3.967754
        CHANNELS 3 Zrotation Xrotation Yrotation
        JOINT right_clavicle
        {
          OFFSET -13.16364 1.694482 -4.693211
          CHANNELS 3 Zrotation Xrotation Yrotation
          JOINT right_humerus
          {
            OFFSET -28.5034 -0.3100689 -2.792744
            CHANNELS 3 Zrotation Xrotation Yrotation
            JOINT right_radius
            {
              OFFSET -25.15693 0.02248979 -1.271978
              CHANNELS 3 Zrotation Xrotation Yrotation
              End Site
              {
                OFFSET -15 0 0
              }
            }
          }
        }
      }
      JOINT left_manubrium
      {
        OFFSET 5.722621 16.35077 3.967754
        CHANNELS 3 Zrotation Xrotation Yrotation
        JOINT left_clavicle
        {
          OFFSET 13.16364 1.694482 -4.693211
          CHANNELS 3 Zrotation Xrotation Yrotation
          JOINT left_humerus
          {
            OFFSET 29.39168 -1.063119 -2.237045
            CHANNELS 3 Zrotation Xrotation Yrotation
            JOINT left_radius
            {
              OFFSET 24.59957 -0.9528479 0.9047498
              CHANNELS 3 Zrotation Xrotation Yrotation
              End Site
              {
                OFFSET 15 -0 -0
              }
            }
          }
        }
      }
    }
  }
}
MOTION
Frames: 17
Frame Time: 0.0416666666667
0 103.5113 0 2.36691 0.2061644 0.1750502 2.789629 -15.93038 10.19339 -0 37.60094 -0 -3.910766 -19.39239 -2.487644 -9.056495 9.603075 -22.91578 -0 4.455719 -0 21.83123 -8.825852 30.67079 -1.942009 -2.468996 5.921566 1.863126 10.28034 -6.78093 1.479864 21.08569 6.864886 3.057216 -24.46701 9.871737 5.368722 -19.6687 11.14947 85.84858 38.65483 -17.5026 -0 0 15.20667 -8.208355 9.488296 4.637491 6.531769 -20.81714 -0.9603675 -91.82697 21.52505 21.57782 0 0 -18.00024 14.17066 13.05757 -1.700256
0.3508077 103.5712 1.721724 1.901049 0.8083927 0.3220635 3.868742 -18.11364 11.19716 -0 37.98673 -0 -3.861037 -18.59721 -2.525829 -8.919152 9.48915 -22.85273 -0 4.925422 -0 22.7529 -8.784219 31.3578 -1.889317 -2.40154 5.721677 1.954155 10.33713 -7.000035 1.525734 20.91564 6.952345 3.120953 -24.75861 10.07597 5.337524 -19.53859 11.07715 86.77404 39.03626 -18.6067 -0 0 14.65916 -7.465735 9.308192 4.039729 6.754529 -20.9838 -1.061311 -91.28948 21.22558 20.91123 0 0 -19.21226 14.797 12.71851 -2.415675
0.7175028 103.53 3.578518 1.252049 1.016877 0.4520889 4.884098 -20.89857 10.41881 -0 35.54754 -0 -4.445668 -16.00431 -2.318892 -8.320444 10.40825 -22.57625 -0 5.556503 -0 19.21822 -12.17846 30.09981 -1.88767 -2.288144 5.484753 2.051553 10.39635 -7.189123 1.511391 20.8369 6.947991 3.141087 -24.74395 9.986748 5.318259 -19.27988 11.0867 87.32349 38.93633 -19.30267 -0 0 14.06998 -7.455527 9.243662 4.036215 6.800849 -21.10429 -1.255312 -90.67414 21.06543 20.07523 0 0 -20.06101 14.6523 12.35284 -2.342574
1.088094 103.435 5.547384 0.7815421 1.277102 0.5646005 5.622542 -22.94508 10.18604 -0 34.05185 -0 -4.756345 -14.38687 -2.278806 -7.902468 10.90989 -22.33464 -0 5.983393 -0 17.07718 -14.19466 29.27131 -1.869974 -2.20862 5.279779 2.142545 10.44101 -7.371868 1.51921 20.73728 6.978347 3.171883 -24.85943 10.01923 5.297802 -19.09488 11.06637 87.95048 38.99463 -20.08103 -0 0 13.5616 -7.1765 9.14217 3.821504 6.900114 -21.22323 -1.39608 -90.17057 20.89127 19.40086 0 0 -20.94481 14.78598 12.05353 -2.546379
1.463425 103.2213 7.771197 0.2839644 1.645996 0.6830133 6.324345 -25.58726 9.29351 -0 30.96591 -0 -5.303884 -11.88254 -1.918166 -7.4526 11.42975 -21.61243 -0 6.617249 -0 14.64955 -16.47244 27.76466 -1.858411 -2.148494 5.068537 2.257449 10.47818 -7.557923 1.515243 20.66049 6.995256 3.184279 -24.97757 10.024 5.288365 -18.90258 11.06525 88.49521 38.90414 -20.81712 -0 0 13.06264 -6.978723 9.062387 3.689425 6.959899 -21.33139 -1.540759 -89.75781 20.82425 18.80278 0 0 -21.67121 14.76304 11.81861 -2.567454
1.834782 102.8797 10.30718 -0.1565093 2.099056 0.8305752 6.889871 -28.17055 8.377004 -0 27.66031 -0 -5.809895 -9.444318 -1.530549 -7.049838 11.86805 -20.72401 -0 7.291468 -0 12.55724 -18.31829 26.14807 -1.846628 -2.100018 4.858693 2.380285 10.5117 -7.744974 1.50842 20.58966 7.011278 3.191043 -25.10961 10.03008 5.28254 -18.71578 11.06851 89.01527 38.76759 -21.54428 -0 0 12.57632 -6.7885 8.987978 3.569896 7.010433 -21.43714 -1.681754 -89.39192 20.79748 18.2512 0 0 -22.34077 14.70575 11.6141 -2.542417
2.192064 102.3967 13.28713 -0.5759753 2.705142 1.04553 7.356419 -30.92535 7.201044 -0 23.60447 -0 -6.37336 -6.678198 -0.9959472 -6.662122 12.29405 -19.47973 -0 8.262618 -0 10.66307 -19.78857 24.17452 -1.836907 -2.059167 4.637325 2.519914 10.54489 -7.941663 1.493177 20.52894 7.019464 3.188088 -25.23671 10.01322 5.282253 -18.51409 11.08386 89.50331 38.53307 -22.26857 -0 0 12.07178 -6.655172 8.9282 3.503461 7.039995 -21.54561 -1.832909 -89.05603 20.82778 17.71172 0 0 -22.94558 14.54489 11.43192 -2.397981
2.51903 101.7933 16.81478 -0.9609437 3.384603 1.362414 7.680244 -33.37418 5.929142 -0 19.44771 -0 -6.927464 -3.934685 -0.4637708 -6.267826 12.7474 -18.01739 -0 9.684072 -0 8.832846 -20.68138 21.90739 -1.829346 -2.019842 4.411815 2.664965 10.57914 -8.140162 1.470885 20.47723 7.020148 3.179279 -25.3397 9.969909 5.284722 -18.30001 11.10824 89.95295 38.23221 -22.96344 -0 0 11.55909 -6.590109 8.885916 3.491109 7.052499 -21.65696 -1.992211 -88.73066 20.88692 17.17055 0 0 -23.49895 14.30079 11.25792 -2.159982
2.796073 101.1378 20.99736 -1.334816 4.039687 1.807059 7.875359 -35.07103 4.593193 -0 15.6522 -0 -7.500353 -1.346657 -0.01228733 -5.812718 13.24871 -16.37019 -0 11.98701 -0 6.806299 -20.77117 19.24729 -1.825411 -1.979618 4.193461 2.805628 10.61429 -8.329235 1.441367 20.43843 7.010796 3.165242 -25.39698 9.891957 5.289007 -18.07904 11.14171 90.33474 37.87857 -23.58173 -0 0 11.05994 -6.620342 8.868916 3.547997 7.04416 -21.76708 -2.155322 -88.41814 20.9641 16.63853 0 0 -23.97494 13.97048 11.09133 -1.826048
3.007866 100.5628 25.89017 -1.727063 4.471973 2.366368 8.011192 -35.38267 3.374369 -0 13.04924 -0 -8.09953 0.7172997 0.2112613 -5.238217 13.71487 -14.68236 -0 15.6986 -0 4.348249 -19.77491 16.25832 -1.827275 -1.939777 4.009446 2.923614 10.64722 -8.484099 1.406411 20.41995 6.988738 3.146549 -25.38533 9.776725 5.294218 -17.87344 11.18284 90.58979 37.50615 -24.03232 -0 0 10.63359 -6.77082 8.88584 3.686458 7.009693 -21.86199 -2.306131 -88.14879 21.04882 16.1714 0 0 -24.30627 13.5688 10.94601 -1.410773
3.156049 100.2647 31.46332 -2.163132 4.451251 2.957 8.213375 -33.81246 2.487792 -0 12.28572 -0 -8.740866 1.838321 0.09919129 -4.511489 13.85894 -13.08866 -0 21.46794 -0 1.47843 -17.4445 13.1958 -1.838363 -1.90398 3.895667 2.997193 10.67281 -8.571789 1.368289 20.43278 6.949612 3.122507 -25.28034 9.622002 5.299952 -17.71465 11.2309 90.63645 37.15095 -24.19481 -0 0 10.36202 -7.071715 8.945308 3.924357 6.939776 -21.91932 -2.42258 -87.97309 21.13757 15.8549 0 0 -24.3919 13.10847 10.84629 -0.9253664
3.27215 100.454 37.55413 -2.611194 3.804589 3.404492 8.539008 -30.28134 2.088303 -0 13.35839 -0 -9.396428 1.607985 -0.3544135 -3.688955 13.11343 -11.70119 -0 29.69286 -0 -1.371015 -13.85295 10.57079 -1.862375 -1.874781 3.889766 3.00201 10.68564 -8.556575 1.330216 20.48732 6.888964 3.093128 -25.05809 9.427149 5.304718 -17.63693 11.28446 90.39239 36.85307 -23.94292 -0 0 10.33374 -7.551613 9.051866 4.279473 6.825966 -21.91267 -2.4818 -87.93954 21.22229 15.77572 0 0 -24.13472 12.60748 10.81387 -0.3891273
3.412626 101.2498 43.86665 -2.932174 2.563291 3.492213 8.827148 -25.28218 2.079319 -0 15.16798 -0 -9.971037 -0.06201244 -0.9611658 -2.949669 10.73728 -10.53424 -0 39.9978 -0 -3.532094 -9.649474 8.88488 -1.901277 -1.849305 4.018006 2.915005 10.68349 -8.411265 1.295947 20.58789 6.803923 3.060998 -24.69495 9.191452 5.304363 -17.66343 11.34063 89.80792 36.64615 -23.18558 -0 0 10.61167 -8.234621 9.204262 4.765814 6.666644 -21.82196 -2.470027 -88.06207 21.27858 15.97358 0 0 -23.49469 12.08782 10.84969 0.1688418
3.622415 102.5656 50.05882 -2.879769 1.012347 3.108088 8.719949 -19.61192 2.121035 -0 15.9403 -0 -10.28686 -2.646996 -1.385947 -2.519174 6.254489 -9.521953 -0 50.70614 -0 -4.572214 -5.984442 8.316114 -1.952527 -1.81901 4.284481 2.720932 10.66994 -8.128464 1.269303 20.72852 6.695214 3.031856 -24.17388 8.915551 5.291931 -17.79624 11.39484 88.89364 36.54124 -21.90828 -0 0 11.20638 -9.130172 9.394258 5.385179 6.4719 -21.64356 -2.389451 -88.30643 21.26816 16.41549 0 0 -22.52018 11.57188 10.92654 0.7150307
3.888259 104.1021 55.89863 -2.238034 -0.5081856 2.373571 7.950606 -13.81171 1.909375 -0 14.61908 -0 -10.17584 -5.093411 -1.402384 -2.456572 0.0009944681 -8.587211 -0 59.14904 -0 -4.628524 -3.885008 8.718111 -2.008562 -1.775566 4.671405 2.419147 10.65231 -7.722827 1.253167 20.89521 6.567349 3.012049 -23.49705 8.604519 5.260187 -18.0198 11.4425 87.71479 36.51174 -20.18027 -0 0 12.0785 -10.22274 9.606182 6.122501 6.260128 -21.38957 -2.255798 -88.61841 21.16509 17.02655 0 0 -21.31503 11.07008 11.00494 1.231711
4.141877 105.4886 61.34938 -1.07794 -1.87584 1.571367 6.682398 -7.999471 1.487767 -0 11.84128 -0 -9.661332 -6.561629 -1.139133 -2.497456 -6.865343 -7.647093 -0 62.95572 -0 -4.205484 -3.555634 9.882869 -2.060127 -1.719042 5.15187 2.024582 10.63505 -7.220734 1.24832 21.07385 6.427482 3.004636 -22.69746 8.271354 5.205079 -18.31803 11.48106 86.35279 36.49838 -18.11519 -0 0 13.17427 -11.46906 9.817991 6.949247 6.047569 -21.0753 -2.086556 -88.97499 20.98395 17.75877 0 0 -19.96364 10.57381 11.0626 1.730862
4.332537 106.4362 66.50226 0.1478483 -3.143327 0.9243947 5.472534 -2.274017 1.171476 -0 9.136633 -0 -8.9656 -7.262611 -0.9357212 -2.168386 -13.11727 -6.588444 -0 61.17129 -0 -3.692962 -4.305208 11.6033 -2.10056 -1.660258 5.705547 1.55901 10.61574 -6.645596 1.252533 21.25588 6.284632 3.008509 -21.83366 7.935787 5.126399 -18.68987 11.51019 84.86742 36.4384 -15.81395 -0 0 14.46347 -12.81334 10.00627 7.8357 5.840762 -20.70881 -1.890103 -89.40372 20.77379 18.62846 0 0 -18.48929 10.06566 11.10633 2.242435
